<svg width="442" height="38" viewBox="0 0 442 38" fill="none" xmlns="http://www.w3.org/2000/svg">
<path d="M13.7248 37.432C9.53275 37.432 6.28475 36.536 3.98075 34.744C1.67675 32.952 0.36475 30.312 0.04475 26.824L7.38875 25.768C7.58075 27.432 8.23675 28.712 9.35675 29.608C10.4768 30.472 12.0288 30.904 14.0128 30.904C15.7088 30.904 17.0048 30.616 17.9008 30.04C18.8288 29.432 19.2928 28.584 19.2928 27.496C19.2928 26.504 18.8128 25.72 17.8528 25.144C16.8928 24.568 15.3088 24.024 13.1008 23.512C10.7328 22.936 8.73275 22.248 7.10075 21.448C5.46875 20.616 4.23675 19.544 3.40475 18.232C2.57275 16.92 2.15675 15.256 2.15675 13.24C2.15675 11.128 2.70075 9.256 3.78875 7.624C4.87675 5.992 6.39675 4.728 8.34875 3.832C10.3008 2.904 12.5568 2.44 15.1168 2.44C18.4448 2.44 21.1648 3.288 23.2768 4.984C25.3888 6.68 26.6048 9 26.9248 11.944L20.0608 13.096C19.8048 11.784 19.2128 10.776 18.2848 10.072C17.3568 9.336 16.1888 8.968 14.7808 8.968C13.3728 8.968 12.2368 9.304 11.3728 9.976C10.5088 10.616 10.0768 11.496 10.0768 12.616C10.0768 13.64 10.4928 14.472 11.3248 15.112C12.1568 15.72 13.6768 16.296 15.8848 16.84C18.2208 17.416 20.2368 18.072 21.9328 18.808C23.6288 19.512 24.9248 20.488 25.8208 21.736C26.7488 22.984 27.2128 24.68 27.2128 26.824C27.2128 28.904 26.6528 30.744 25.5328 32.344C24.4128 33.944 22.8288 35.192 20.7808 36.088C18.7648 36.984 16.4128 37.432 13.7248 37.432ZM42.9871 12.184C46.7951 12.184 49.7711 13.272 51.9151 15.448C54.0911 17.624 55.1791 20.568 55.1791 24.28C55.1791 26.808 54.6351 29.064 53.5471 31.048C52.4591 33.032 50.9231 34.6 48.9391 35.752C46.9551 36.904 44.6191 37.48 41.9311 37.48C38.1551 37.48 35.1791 36.392 33.0031 34.216C30.8591 32.04 29.7871 29.112 29.7871 25.432C29.7871 22.872 30.3311 20.6 31.4191 18.616C32.5071 16.632 34.0431 15.064 36.0271 13.912C38.0111 12.76 40.3311 12.184 42.9871 12.184ZM42.2671 31.096C43.8991 31.096 45.1951 30.488 46.1551 29.272C47.1471 28.024 47.6431 26.36 47.6431 24.28C47.6431 22.488 47.2111 21.096 46.3471 20.104C45.4831 19.08 44.2991 18.568 42.7951 18.568C41.1311 18.568 39.8031 19.192 38.8111 20.44C37.8511 21.656 37.3711 23.304 37.3711 25.384C37.3711 27.176 37.7871 28.584 38.6191 29.608C39.4831 30.6 40.6991 31.096 42.2671 31.096ZM59.6289 37V12.568H66.9249L66.6369 17.608C67.6609 15.72 68.9409 14.344 70.4769 13.48C72.0129 12.616 73.6449 12.184 75.3729 12.184C77.0689 12.184 78.5889 12.616 79.9329 13.48C81.2769 14.312 82.3009 15.672 83.0049 17.56C84.0929 15.736 85.4689 14.392 87.1329 13.528C88.8289 12.632 90.5409 12.184 92.2689 12.184C95.1489 12.184 97.3089 13.176 98.7489 15.16C100.189 17.112 100.893 19.928 100.861 23.608L100.765 37H93.4209L93.5169 23.752C93.5169 22.28 93.2449 21.128 92.7009 20.296C92.1569 19.432 91.3249 19 90.2049 19C89.3409 19 88.5249 19.272 87.7569 19.816C87.0209 20.36 86.3649 21.304 85.7889 22.648C85.2129 23.992 84.7489 25.832 84.3969 28.168C84.0769 30.504 83.8849 33.448 83.8209 37H76.5249V23.752C76.5249 22.28 76.2689 21.128 75.7569 20.296C75.2449 19.432 74.4289 19 73.3089 19C72.4449 19 71.6289 19.272 70.8609 19.816C70.1249 20.36 69.4689 21.304 68.8929 22.648C68.3169 23.992 67.8529 25.832 67.5009 28.168C67.1489 30.504 66.9569 33.448 66.9249 37H59.6289ZM118.13 37.48C115.41 37.48 113.058 36.984 111.074 35.992C109.09 34.968 107.554 33.544 106.466 31.72C105.378 29.864 104.834 27.672 104.834 25.144C104.834 22.584 105.378 20.328 106.466 18.376C107.586 16.424 109.074 14.904 110.93 13.816C112.818 12.728 114.946 12.184 117.314 12.184C120.002 12.184 122.194 12.792 123.89 14.008C125.586 15.224 126.754 16.952 127.394 19.192C128.066 21.4 128.21 23.976 127.826 26.92H112.322C112.514 28.136 113.154 29.16 114.242 29.992C115.33 30.792 116.818 31.192 118.706 31.192C119.57 31.192 120.482 31.016 121.442 30.664C122.402 30.28 123.218 29.72 123.89 28.984L127.97 33.304C126.914 34.584 125.602 35.608 124.034 36.376C122.498 37.112 120.53 37.48 118.13 37.48ZM117.458 17.512C116.178 17.512 115.09 17.896 114.194 18.664C113.33 19.432 112.754 20.504 112.466 21.88H121.634C121.666 20.376 121.298 19.272 120.53 18.568C119.794 17.864 118.77 17.512 117.458 17.512ZM156.378 12.184C160.186 12.184 163.162 13.272 165.306 15.448C167.482 17.624 168.57 20.568 168.57 24.28C168.57 26.808 168.026 29.064 166.938 31.048C165.85 33.032 164.314 34.6 162.33 35.752C160.346 36.904 158.01 37.48 155.322 37.48C151.546 37.48 148.57 36.392 146.394 34.216C144.25 32.04 143.178 29.112 143.178 25.432C143.178 22.872 143.722 20.6 144.81 18.616C145.898 16.632 147.434 15.064 149.418 13.912C151.402 12.76 153.722 12.184 156.378 12.184ZM155.658 31.096C157.29 31.096 158.586 30.488 159.546 29.272C160.538 28.024 161.034 26.36 161.034 24.28C161.034 22.488 160.602 21.096 159.738 20.104C158.874 19.08 157.69 18.568 156.186 18.568C154.522 18.568 153.194 19.192 152.202 20.44C151.242 21.656 150.762 23.304 150.762 25.384C150.762 27.176 151.178 28.584 152.01 29.608C152.874 30.6 154.09 31.096 155.658 31.096ZM174.364 37V18.664H169.851V12.568H174.364V11.8C174.364 9.592 174.844 7.688 175.804 6.088C176.764 4.456 178.06 3.208 179.692 2.344C181.356 1.448 183.228 0.999997 185.308 0.999997C187.772 0.999997 189.772 1.608 191.308 2.824C192.844 4.04 193.788 5.912 194.14 8.44L187.852 9.208C187.756 8.568 187.468 8.072 186.988 7.72C186.508 7.368 185.9 7.192 185.164 7.192C184.044 7.192 183.164 7.544 182.523 8.248C181.916 8.92 181.612 9.896 181.612 11.176V12.568H188.188V18.664H181.708V37H174.364ZM215.253 12.184C219.061 12.184 222.037 13.272 224.181 15.448C226.357 17.624 227.445 20.568 227.445 24.28C227.445 26.808 226.901 29.064 225.813 31.048C224.725 33.032 223.189 34.6 221.205 35.752C219.221 36.904 216.885 37.48 214.197 37.48C210.421 37.48 207.445 36.392 205.269 34.216C203.125 32.04 202.053 29.112 202.053 25.432C202.053 22.872 202.597 20.6 203.685 18.616C204.773 16.632 206.309 15.064 208.293 13.912C210.277 12.76 212.597 12.184 215.253 12.184ZM214.533 31.096C216.165 31.096 217.461 30.488 218.421 29.272C219.413 28.024 219.909 26.36 219.909 24.28C219.909 22.488 219.477 21.096 218.613 20.104C217.749 19.08 216.565 18.568 215.061 18.568C213.397 18.568 212.069 19.192 211.077 20.44C210.117 21.656 209.637 23.304 209.637 25.384C209.637 27.176 210.053 28.584 210.885 29.608C211.749 30.6 212.965 31.096 214.533 31.096ZM239.959 37.48C237.143 37.48 235.015 36.52 233.575 34.6C232.135 32.68 231.431 30.008 231.463 26.584L231.559 12.568H238.903L238.807 26.008C238.807 27.448 239.063 28.584 239.575 29.416C240.087 30.248 240.887 30.664 241.975 30.664C242.903 30.664 243.751 30.376 244.519 29.8C245.287 29.224 245.959 28.264 246.535 26.92C247.111 25.576 247.559 23.736 247.879 21.4C248.231 19.064 248.423 16.12 248.455 12.568H255.559V37H248.215L248.551 32.296C247.591 33.96 246.375 35.24 244.903 36.136C243.431 37.032 241.783 37.48 239.959 37.48ZM277.943 19.672C277.303 19.416 276.439 19.288 275.351 19.288C273.687 19.288 272.359 19.88 271.367 21.064C270.375 22.216 269.655 24.104 269.207 26.728C268.759 29.32 268.535 32.744 268.535 37H261.239V21.16L261.143 12.568H268.487L268.151 18.664C269.015 16.328 270.167 14.664 271.607 13.672C273.079 12.68 274.647 12.184 276.311 12.184C276.855 12.184 277.351 12.216 277.799 12.28C278.279 12.344 278.759 12.456 279.239 12.616L277.943 19.672ZM304.954 37.48C302.426 37.48 300.234 37 298.378 36.04C296.522 35.048 295.082 33.64 294.058 31.816C293.034 29.992 292.521 27.816 292.521 25.288C292.521 22.696 293.066 20.424 294.154 18.472C295.274 16.488 296.81 14.952 298.762 13.864C300.714 12.744 302.986 12.184 305.578 12.184C307.69 12.184 309.562 12.6 311.194 13.432C312.826 14.264 314.138 15.56 315.13 17.32L309.946 21.256C309.434 20.328 308.826 19.656 308.122 19.24C307.45 18.824 306.602 18.616 305.578 18.616C304.01 18.616 302.714 19.224 301.69 20.44C300.666 21.624 300.154 23.192 300.154 25.144C300.154 27.032 300.602 28.488 301.498 29.512C302.426 30.536 303.754 31.048 305.482 31.048C306.41 31.048 307.258 30.84 308.026 30.424C308.826 29.976 309.498 29.288 310.042 28.36L315.082 32.392C313.994 34.248 312.554 35.56 310.762 36.328C309.002 37.096 307.066 37.48 304.954 37.48ZM325.309 37.48C322.845 37.48 320.941 36.808 319.597 35.464C318.285 34.088 317.629 32.104 317.629 29.512V1.48H324.973V28.984C324.973 30.456 325.661 31.192 327.037 31.192C327.773 31.192 328.397 31.016 328.909 30.664L330.685 35.896C330.141 36.344 329.389 36.712 328.429 37C327.469 37.32 326.429 37.48 325.309 37.48ZM339.785 12.568V37H332.441V12.568H339.785ZM336.089 9.688C334.681 9.688 333.561 9.256 332.729 8.392C331.897 7.528 331.481 6.504 331.481 5.32C331.481 4.136 331.881 3.112 332.681 2.248C333.513 1.384 334.649 0.951998 336.089 0.951998C337.497 0.951998 338.617 1.384 339.449 2.248C340.281 3.112 340.697 4.136 340.697 5.32C340.697 6.504 340.281 7.528 339.449 8.392C338.617 9.256 337.497 9.688 336.089 9.688ZM357.427 37.48C354.707 37.48 352.355 36.984 350.371 35.992C348.387 34.968 346.851 33.544 345.763 31.72C344.675 29.864 344.131 27.672 344.131 25.144C344.131 22.584 344.675 20.328 345.763 18.376C346.883 16.424 348.371 14.904 350.227 13.816C352.115 12.728 354.243 12.184 356.611 12.184C359.299 12.184 361.491 12.792 363.187 14.008C364.883 15.224 366.051 16.952 366.691 19.192C367.363 21.4 367.507 23.976 367.123 26.92H351.619C351.811 28.136 352.451 29.16 353.539 29.992C354.627 30.792 356.115 31.192 358.003 31.192C358.867 31.192 359.779 31.016 360.739 30.664C361.699 30.28 362.515 29.72 363.187 28.984L367.267 33.304C366.211 34.584 364.899 35.608 363.331 36.376C361.795 37.112 359.827 37.48 357.427 37.48ZM356.755 17.512C355.475 17.512 354.387 17.896 353.491 18.664C352.627 19.432 352.051 20.504 351.763 21.88H360.931C360.963 20.376 360.595 19.272 359.827 18.568C359.091 17.864 358.067 17.512 356.755 17.512ZM371.629 37V12.568H378.925L378.589 17.8C379.581 16.008 380.845 14.632 382.381 13.672C383.949 12.68 385.693 12.184 387.613 12.184C390.525 12.184 392.701 13.176 394.141 15.16C395.581 17.112 396.285 19.928 396.253 23.608L396.157 37H388.813L388.909 24.136C388.941 22.472 388.685 21.208 388.141 20.344C387.629 19.448 386.797 19 385.645 19C384.685 19 383.805 19.288 383.005 19.864C382.205 20.408 381.501 21.352 380.893 22.696C380.317 24.04 379.853 25.88 379.501 28.216C379.149 30.552 378.957 33.48 378.925 37H371.629ZM412.527 37.48C409.519 37.48 407.135 36.648 405.375 34.984C403.615 33.288 402.751 31.064 402.783 28.312L402.975 18.664H398.943V12.568H403.071L403.119 7.576H410.415L410.367 12.568H417.999V18.664H410.271L410.127 27.496C410.127 28.648 410.431 29.544 411.039 30.184C411.647 30.824 412.559 31.144 413.775 31.144C414.479 31.144 415.151 31.064 415.791 30.904C416.463 30.712 417.151 30.36 417.855 29.848L419.967 35.464C418.335 36.808 415.855 37.48 412.527 37.48ZM431.042 37.48C427.49 37.48 424.802 36.824 422.978 35.512C421.154 34.168 420.082 32.408 419.762 30.232L425.858 28.696C426.05 29.624 426.578 30.376 427.442 30.952C428.306 31.496 429.49 31.768 430.994 31.768C433.394 31.768 434.594 31.208 434.594 30.088C434.594 29.512 434.242 29.08 433.538 28.792C432.866 28.472 431.762 28.168 430.226 27.88C427.346 27.368 425.106 26.552 423.506 25.432C421.938 24.312 421.154 22.6 421.154 20.296C421.154 18.728 421.602 17.336 422.498 16.12C423.394 14.904 424.626 13.944 426.194 13.24C427.762 12.536 429.57 12.184 431.618 12.184C434.274 12.184 436.466 12.808 438.194 14.056C439.954 15.304 440.994 16.84 441.314 18.664L435.314 20.296C435.09 19.592 434.642 19.016 433.97 18.568C433.33 18.12 432.45 17.896 431.33 17.896C430.274 17.896 429.49 18.072 428.978 18.424C428.498 18.776 428.258 19.192 428.258 19.672C428.258 20.248 428.594 20.712 429.266 21.064C429.938 21.384 431.122 21.72 432.818 22.072C434.546 22.392 436.066 22.84 437.378 23.416C438.722 23.96 439.762 24.728 440.498 25.72C441.266 26.68 441.65 27.992 441.65 29.656C441.65 31.224 441.186 32.6 440.258 33.784C439.362 34.968 438.114 35.88 436.514 36.52C434.914 37.16 433.09 37.48 431.042 37.48Z" fill="white"/>
</svg>
